<svg aria-hidden="true" style="position: absolute; width: 0; height: 0; overflow: hidden;" version="1.1" xmlns="http://www.w3.org/2000/svg" xmlns:xlink="http://www.w3.org/1999/xlink">
<defs>
<symbol id="icon-twitter" viewBox="0 0 32 32">
<path d="M32 6.078c-1.19 0.522-2.458 0.868-3.78 1.036 1.36-0.812 2.398-2.088 2.886-3.626-1.268 0.756-2.668 1.29-4.16 1.588-1.204-1.282-2.92-2.076-4.792-2.076-3.632 0-6.556 2.948-6.556 6.562 0 0.52 0.044 1.020 0.152 1.496-5.454-0.266-10.28-2.88-13.522-6.862-0.566 0.982-0.898 2.106-0.898 3.316 0 2.272 1.17 4.286 2.914 5.452-1.054-0.020-2.088-0.326-2.964-0.808 0 0.020 0 0.046 0 0.072 0 3.188 2.274 5.836 5.256 6.446-0.534 0.146-1.116 0.216-1.72 0.216-0.42 0-0.844-0.024-1.242-0.112 0.85 2.598 3.262 4.508 6.13 4.57-2.232 1.746-5.066 2.798-8.134 2.798-0.538 0-1.054-0.024-1.57-0.090 2.906 1.874 6.35 2.944 10.064 2.944 12.072 0 18.672-10 18.672-18.668 0-0.29-0.010-0.57-0.024-0.848 1.302-0.924 2.396-2.078 3.288-3.406z"></path>
</symbol>
<symbol id="icon-smartphone" viewBox="0 0 21 32">
<path d="M18.133 0h-14.933c-1.765 0-3.2 1.34-3.2 2.987v25.889c0 1.647 1.435 2.987 3.2 2.987h14.933c1.765 0 3.2-1.34 3.2-2.987v-25.889c0-1.647-1.435-2.987-3.2-2.987zM3.2 1.991h14.933c0.589 0 1.067 0.446 1.067 0.996v20.91h-17.067v-20.91c0-0.549 0.478-0.996 1.067-0.996zM18.133 29.872h-14.933c-0.589 0-1.067-0.446-1.067-0.996v-2.987h17.067v2.987c0 0.55-0.478 0.996-1.067 0.996z"></path>
<path d="M5.021 27.176c0.417 0.389 0.417 1.020 0 1.409s-1.092 0.389-1.508 0c-0.417-0.389-0.417-1.020 0-1.409s1.092-0.389 1.508 0z"></path>
</symbol>
<symbol id="icon-mail" viewBox="0 0 43 32">
<path d="M38.667 0h-34.667c-2.206 0-4 1.675-4 3.734v22.404c0 2.059 1.794 3.734 4 3.734h34.667c2.206 0 4-1.675 4-3.734v-22.404c0-2.059-1.794-3.734-4-3.734zM38.667 2.489c0.181 0 0.353 0.035 0.511 0.096l-17.844 14.437-17.844-14.437c0.158-0.061 0.33-0.096 0.511-0.096h34.667zM38.667 27.383h-34.667c-0.736 0-1.333-0.558-1.333-1.245v-20.922l17.793 14.395c0.251 0.203 0.563 0.304 0.874 0.304s0.622-0.101 0.874-0.304l17.793-14.395v20.922c0 0.687-0.598 1.245-1.333 1.245z"></path>
</symbol>
<symbol id="icon-linkedin" viewBox="0 0 32 32">
<path d="M31.992 32v-0.001h0.008v-11.736c0-5.741-1.236-10.164-7.948-10.164-3.227 0-5.392 1.771-6.276 3.449h-0.093v-2.913h-6.364v21.364h6.627v-10.579c0-2.785 0.528-5.479 3.977-5.479 3.399 0 3.449 3.179 3.449 5.657v10.401h6.62z"></path>
<path d="M0.528 10.636h6.635v21.364h-6.635v-21.364z"></path>
<path d="M3.843 0c-2.121 0-3.843 1.721-3.843 3.843s1.721 3.879 3.843 3.879c2.121 0 3.843-1.757 3.843-3.879-0.001-2.121-1.723-3.843-3.843-3.843v0z"></path>
</symbol>
<symbol id="icon-instagram" viewBox="0 0 32 32">
<path d="M31.969 9.408c-0.075-1.7-0.35-2.869-0.744-3.882-0.406-1.075-1.032-2.038-1.851-2.838-0.8-0.813-1.769-1.444-2.832-1.844-1.019-0.394-2.182-0.669-3.882-0.744-1.713-0.081-2.257-0.1-6.601-0.1s-4.888 0.019-6.595 0.094c-1.7 0.075-2.869 0.35-3.882 0.744-1.075 0.406-2.038 1.031-2.838 1.85-0.813 0.8-1.444 1.769-1.844 2.832-0.394 1.019-0.669 2.182-0.744 3.882-0.081 1.713-0.1 2.257-0.1 6.601s0.019 4.888 0.094 6.595c0.075 1.7 0.35 2.869 0.744 3.882 0.406 1.075 1.038 2.038 1.85 2.838 0.8 0.813 1.769 1.444 2.832 1.844 1.019 0.394 2.182 0.669 3.882 0.744 1.706 0.075 2.25 0.094 6.595 0.094s4.888-0.019 6.595-0.094c1.7-0.075 2.869-0.35 3.882-0.744 2.151-0.832 3.851-2.532 4.682-4.682 0.394-1.019 0.669-2.182 0.744-3.882 0.075-1.707 0.094-2.251 0.094-6.595s-0.006-4.888-0.081-6.595zM29.087 22.473c-0.069 1.563-0.331 2.407-0.55 2.969-0.538 1.394-1.644 2.5-3.038 3.038-0.563 0.219-1.413 0.481-2.969 0.55-1.688 0.075-2.194 0.094-6.464 0.094s-4.782-0.019-6.464-0.094c-1.563-0.069-2.407-0.331-2.969-0.55-0.694-0.256-1.325-0.663-1.838-1.194-0.531-0.519-0.938-1.144-1.194-1.838-0.219-0.563-0.481-1.413-0.55-2.969-0.075-1.688-0.094-2.194-0.094-6.464s0.019-4.782 0.094-6.464c0.069-1.563 0.331-2.407 0.55-2.969 0.256-0.694 0.663-1.325 1.2-1.838 0.519-0.531 1.144-0.938 1.838-1.194 0.563-0.219 1.413-0.481 2.969-0.55 1.688-0.075 2.194-0.094 6.464-0.094 4.276 0 4.782 0.019 6.464 0.094 1.563 0.069 2.407 0.331 2.969 0.55 0.694 0.256 1.325 0.662 1.838 1.194 0.531 0.519 0.938 1.144 1.194 1.838 0.219 0.563 0.481 1.413 0.55 2.969 0.075 1.688 0.094 2.194 0.094 6.464s-0.019 4.77-0.094 6.458z"></path>
<path d="M16.059 7.783c-4.538 0-8.22 3.682-8.22 8.22s3.682 8.22 8.22 8.22c4.539 0 8.22-3.682 8.22-8.22s-3.682-8.22-8.22-8.22zM16.059 21.335c-2.944 0-5.332-2.388-5.332-5.332s2.388-5.332 5.332-5.332c2.944 0 5.332 2.388 5.332 5.332s-2.388 5.332-5.332 5.332z"></path>
<path d="M26.524 7.458c0 1.060-0.859 1.919-1.919 1.919s-1.919-0.859-1.919-1.919c0-1.060 0.859-1.919 1.919-1.919s1.919 0.859 1.919 1.919z"></path>
</symbol>
<symbol id="icon-facebook" viewBox="0 0 32 32">
<path d="M21.329 5.313h2.921v-5.088c-0.504-0.069-2.237-0.225-4.256-0.225-4.212 0-7.097 2.649-7.097 7.519v4.481h-4.648v5.688h4.648v14.312h5.699v-14.311h4.46l0.708-5.688h-5.169v-3.919c0.001-1.644 0.444-2.769 2.735-2.769z"></path>
</symbol>
<symbol id="icon-client-6" viewBox="0 0 58 32">
<path d="M29.303 14.156c-0.137-0.199-0.202-0.435-0.186-0.672v-0.974c0-0.299 0.062-0.525 0.185-0.681s0.336-0.233 0.636-0.232c0.283 0 0.483 0.066 0.602 0.198 0.129 0.169 0.192 0.375 0.178 0.583v0.229h-0.505v-0.232c0.002-0.076-0.003-0.152-0.015-0.227-0.007-0.051-0.033-0.099-0.072-0.135-0.052-0.039-0.117-0.057-0.183-0.053-0.069-0.005-0.138 0.015-0.193 0.055-0.044 0.040-0.073 0.092-0.084 0.149-0.015 0.079-0.021 0.16-0.020 0.241v1.182c-0.008 0.114 0.014 0.228 0.065 0.332 0.025 0.035 0.060 0.063 0.101 0.080s0.086 0.024 0.13 0.019c0.065 0.005 0.129-0.014 0.179-0.053 0.041-0.039 0.068-0.089 0.075-0.144 0.012-0.078 0.017-0.158 0.016-0.237v-0.24h0.505v0.219c0.014 0.217-0.047 0.432-0.175 0.612-0.116 0.145-0.314 0.217-0.605 0.217s-0.511-0.077-0.635-0.238z"></path>
<path d="M31.408 14.166c-0.128-0.152-0.192-0.373-0.192-0.665v-1.024c0-0.289 0.064-0.508 0.192-0.657s0.341-0.223 0.64-0.222c0.297 0 0.51 0.074 0.637 0.222s0.192 0.368 0.192 0.657v1.024c0 0.289-0.065 0.511-0.195 0.664s-0.341 0.229-0.635 0.229-0.512-0.077-0.64-0.228zM32.283 13.92c0.046-0.095 0.067-0.199 0.061-0.303v-1.254c0.006-0.102-0.015-0.204-0.060-0.297-0.026-0.036-0.061-0.064-0.103-0.082s-0.088-0.024-0.133-0.017c-0.045-0.006-0.092 0-0.134 0.018s-0.078 0.046-0.104 0.081c-0.046 0.093-0.067 0.195-0.061 0.297v1.26c-0.006 0.104 0.015 0.208 0.061 0.303 0.029 0.032 0.066 0.058 0.107 0.075s0.085 0.027 0.13 0.027 0.089-0.009 0.13-0.027c0.041-0.018 0.077-0.043 0.107-0.075v-0.006z"></path>
<path d="M33.486 11.628h0.544l0.409 1.89 0.419-1.89h0.53l0.053 2.728h-0.391l-0.042-1.896-0.404 1.896h-0.314l-0.419-1.903-0.039 1.903h-0.395l0.049-2.728z"></path>
<path d="M36.051 11.628h0.848c0.489 0 0.732 0.258 0.732 0.775 0 0.495-0.257 0.742-0.771 0.741h-0.289v1.213h-0.523l0.003-2.728zM36.775 12.794c0.052 0.006 0.104 0.002 0.154-0.013s0.095-0.040 0.134-0.073c0.060-0.092 0.087-0.2 0.075-0.308 0.003-0.083-0.006-0.166-0.025-0.248-0.008-0.027-0.021-0.053-0.039-0.075s-0.041-0.041-0.066-0.055c-0.073-0.033-0.153-0.048-0.233-0.044h-0.203v0.815h0.203z"></path>
<path d="M38.386 11.628h0.562l0.577 2.728h-0.488l-0.114-0.629h-0.501l-0.117 0.629h-0.495l0.577-2.728zM38.866 13.411l-0.196-1.145-0.196 1.145h0.392z"></path>
<path d="M39.99 11.628h0.366l0.701 1.556v-1.556h0.434v2.728h-0.348l-0.705-1.625v1.625h-0.449l0.001-2.728z"></path>
<path d="M42.509 13.316l-0.583-1.684h0.491l0.356 1.082 0.334-1.082h0.48l-0.576 1.684v1.040h-0.502v-1.040z"></path>
<path d="M30.111 15.549v0.143h-0.427v1.109h-0.179v-1.109h-0.429v-0.143h1.035z"></path>
<path d="M31.45 16.8h-0.138c-0.014 0.001-0.028-0.003-0.039-0.012-0.010-0.007-0.018-0.017-0.023-0.029l-0.123-0.297h-0.592l-0.123 0.297c-0.004 0.012-0.010 0.024-0.019 0.034-0.011 0.008-0.025 0.012-0.039 0.012h-0.138l0.523-1.251h0.182l0.53 1.246zM30.583 16.336h0.494l-0.209-0.509c-0.015-0.039-0.028-0.078-0.039-0.118-0.007 0.024-0.014 0.047-0.020 0.066l-0.019 0.053-0.207 0.508z"></path>
<path d="M32.352 16.677c0.033 0.002 0.066 0.002 0.098 0 0.028-0.003 0.056-0.008 0.084-0.015 0.026-0.006 0.051-0.014 0.075-0.023 0.023-0.009 0.046-0.020 0.070-0.031v-0.281h-0.209c-0.005 0-0.010-0-0.015-0.002s-0.009-0.004-0.013-0.008c-0.003-0.003-0.006-0.006-0.008-0.010s-0.003-0.008-0.002-0.012v-0.096h0.406v0.48c-0.033 0.022-0.068 0.042-0.105 0.059s-0.076 0.032-0.116 0.043c-0.043 0.012-0.087 0.021-0.131 0.026-0.051 0.005-0.102 0.008-0.153 0.008-0.090 0.001-0.18-0.015-0.264-0.047-0.078-0.030-0.15-0.074-0.209-0.131-0.058-0.057-0.104-0.124-0.135-0.198-0.033-0.083-0.049-0.171-0.048-0.26-0.001-0.089 0.015-0.178 0.047-0.262 0.030-0.074 0.076-0.142 0.135-0.198s0.131-0.1 0.209-0.13c0.090-0.032 0.185-0.048 0.28-0.047 0.049-0 0.097 0.004 0.145 0.011 0.043 0.007 0.084 0.017 0.125 0.032 0.037 0.013 0.072 0.030 0.105 0.050s0.063 0.041 0.091 0.065l-0.050 0.077c-0.004 0.007-0.010 0.013-0.017 0.017s-0.015 0.006-0.024 0.007c-0.011-0-0.023-0.004-0.032-0.010-0.016-0.008-0.032-0.018-0.051-0.030-0.022-0.013-0.046-0.024-0.070-0.034-0.031-0.012-0.063-0.021-0.096-0.028-0.044-0.008-0.088-0.011-0.133-0.011-0.069-0.001-0.138 0.011-0.202 0.035-0.058 0.022-0.111 0.056-0.154 0.099-0.043 0.045-0.076 0.098-0.097 0.156-0.047 0.136-0.047 0.282 0 0.417 0.023 0.059 0.059 0.113 0.105 0.158 0.043 0.043 0.095 0.077 0.153 0.099 0.066 0.022 0.137 0.030 0.207 0.025z"></path>
<path d="M34.020 16.658h0.571v0.143h-0.746v-1.251h0.179l-0.004 1.109z"></path>
<path d="M35.186 16.8h-0.179v-1.251h0.179v1.251z"></path>
<path d="M35.851 15.555c0.010 0.006 0.020 0.014 0.027 0.023l0.765 0.943c-0.001-0.015-0.001-0.030 0-0.045s0-0.028 0-0.041v-0.892h0.156v1.256h-0.090c-0.013 0.001-0.027-0.001-0.039-0.007-0.011-0.006-0.020-0.014-0.028-0.024l-0.764-0.942c0 0.015 0 0.029 0 0.043s0 0.027 0 0.039v0.892h-0.15v-1.251h0.093c0.010 0 0.020 0.002 0.029 0.006z"></path>
<path d="M38.117 15.549v0.138h-0.634v0.413h0.514v0.133h-0.514v0.427h0.634v0.138h-0.818v-1.248h0.818z"></path>
<path d="M19.364 7.822l7.946 2.136v7.485l-7.946-2.135v-7.486zM18.855 7.184v8.487l8.964 2.41v-8.486l-8.964-2.411z"></path>
<path d="M23.659 22.021l-8.965-2.412v-8.486l8.965 2.411v8.487z"></path>
<path d="M19.003 7.726l7.843 2.109-3.335 3.158-7.844-2.11 3.336-3.157zM18.855 7.184l-4.161 3.939 8.965 2.411 4.16-3.939-8.964-2.411z"></path>
<path d="M24.164 21.544l3.655-3.461-3.655-0.984v4.445z"></path>
</symbol>
<symbol id="icon-client-5" viewBox="0 0 58 32">
<path d="M21.057 20.009c0.075 0.093 0.115 0.21 0.113 0.33 0.004 0.078-0.010 0.156-0.040 0.228s-0.076 0.137-0.135 0.188c-0.146 0.111-0.326 0.165-0.509 0.152h-0.894v-2.091h0.876c0.173-0.012 0.345 0.038 0.485 0.139 0.057 0.048 0.101 0.108 0.131 0.176s0.043 0.142 0.039 0.216c0.005 0.115-0.031 0.229-0.102 0.32-0.068 0.083-0.162 0.141-0.267 0.163 0.119 0.022 0.226 0.085 0.302 0.179zM20.008 19.693h0.375c0.085 0.006 0.17-0.018 0.238-0.070 0.028-0.026 0.050-0.057 0.064-0.093s0.020-0.074 0.016-0.112c0.003-0.038-0.003-0.076-0.017-0.111s-0.035-0.067-0.063-0.093c-0.071-0.053-0.158-0.078-0.245-0.070h-0.368v0.549zM20.657 20.495c0.030-0.026 0.054-0.059 0.069-0.096s0.022-0.077 0.020-0.117c0.002-0.040-0.005-0.081-0.020-0.118s-0.040-0.070-0.070-0.097c-0.073-0.055-0.163-0.081-0.254-0.076h-0.393v0.575h0.398c0.090 0.005 0.178-0.020 0.251-0.073z"></path>
<path d="M22.848 20.908l-0.487-0.817h-0.183v0.817h-0.419v-2.091h0.794c0.2-0.014 0.398 0.050 0.553 0.178 0.111 0.113 0.178 0.263 0.189 0.422s-0.035 0.316-0.13 0.444c-0.098 0.113-0.232 0.188-0.379 0.212l0.519 0.836h-0.456zM22.178 19.806h0.343c0.238 0 0.357-0.106 0.357-0.317 0.002-0.043-0.004-0.086-0.019-0.127s-0.038-0.077-0.068-0.108c-0.075-0.063-0.172-0.093-0.27-0.085h-0.347l0.004 0.637z"></path>
<path d="M25.14 20.487h-0.835l-0.148 0.421h-0.44l0.767-2.068h0.475l0.764 2.068h-0.44l-0.145-0.421zM25.028 20.17l-0.305-0.883-0.305 0.883h0.611z"></path>
<path d="M28.008 20.908h-0.416l-0.933-1.422v1.422h-0.415v-2.091h0.415l0.933 1.43v-1.43h0.416v2.091z"></path>
<path d="M30.384 20.408c-0.086 0.158-0.217 0.286-0.377 0.369-0.181 0.092-0.382 0.137-0.585 0.132h-0.741v-2.091h0.741c0.203-0.005 0.403 0.039 0.585 0.129 0.159 0.081 0.291 0.208 0.377 0.365 0.086 0.17 0.13 0.358 0.13 0.549s-0.045 0.379-0.13 0.549zM29.907 20.358c0.119-0.139 0.184-0.316 0.184-0.499s-0.065-0.36-0.184-0.499c-0.144-0.126-0.331-0.19-0.521-0.178h-0.289v1.354h0.289c0.19 0.012 0.377-0.052 0.521-0.178z"></path>
<path d="M25.4 7.184c0 0 5.372 2.036 5.258 4.983v4.984c0 0-5.368-2.037-5.256-4.984l-0.002-4.983z"></path>
<path d="M35.444 15.984c1.015-0.701 2.188-1.135 3.413-1.263v-1.56c-1.412 0.546-2.609 1.537-3.413 2.823z"></path>
<path d="M34.835 16.454c0.83-1.679 2.27-2.974 4.023-3.62v-4.495c0 0-7.65 2.901-7.489 7.097v7.096c0 0 0.341-0.13 0.877-0.373 0-0.227 0-0.456 0.024-0.686 0.158-1.948 1.081-3.753 2.564-5.019z"></path>
<path d="M34.107 19.090c0.040-0.492 0.13-0.979 0.267-1.453-0.924 1.093-1.483 2.449-1.6 3.877-0.011 0.135-0.017 0.27-0.020 0.409 0.435-0.209 0.94-0.471 1.471-0.779-0.136-0.676-0.176-1.368-0.119-2.055z"></path>
<path d="M34.411 19.115c-0.051 0.622-0.019 1.247 0.094 1.861 2.090-1.256 4.439-3.196 4.348-5.541v-0.204c-1.494 0.168-2.89 0.823-3.977 1.866-0.254 0.646-0.411 1.326-0.466 2.019z"></path>
</symbol>
<symbol id="icon-client-4" viewBox="0 0 58 32">
<path d="M20.050 12.026h-0.001c-0.739 0-1.338 0.584-1.338 1.303v0.001c0 0.72 0.599 1.303 1.338 1.303h0.001c0.739 0 1.338-0.584 1.338-1.303v-0.001c0-0.72-0.599-1.303-1.338-1.303z"></path>
<path d="M29.922 11.61c-0.002-1-0.411-1.958-1.136-2.665s-1.709-1.105-2.735-1.108v0c-1.026 0.002-2.010 0.4-2.736 1.107s-1.134 1.666-1.137 2.666v5.514c0 0 7.742-0.84 7.743-5.513v-0.001z"></path>
<path d="M16 18.933c0.002 0.696 0.286 1.362 0.791 1.854s1.189 0.769 1.903 0.771c0.714-0.002 1.398-0.279 1.902-0.771s0.789-1.158 0.791-1.854v-3.837c0 0-5.387 0.585-5.387 3.836zM18.694 19.62c-0.14 0-0.276-0.040-0.392-0.116s-0.206-0.183-0.26-0.308-0.067-0.264-0.040-0.397c0.027-0.133 0.094-0.256 0.193-0.352s0.224-0.162 0.361-0.188 0.279-0.013 0.408 0.039c0.129 0.052 0.239 0.14 0.317 0.253s0.119 0.246 0.119 0.382c0 0.090-0.018 0.18-0.053 0.264s-0.087 0.16-0.153 0.224c-0.066 0.064-0.143 0.115-0.229 0.15s-0.178 0.053-0.271 0.053v-0.003z"></path>
<path d="M24.192 19.194h-0.551v0.569h-0.287v-1.393h0.907v0.232h-0.62v0.36h0.551v0.231zM25.572 19.098c0 0.137-0.024 0.257-0.073 0.361s-0.118 0.183-0.209 0.239c-0.090 0.056-0.193 0.084-0.31 0.084-0.115 0-0.218-0.028-0.309-0.083s-0.161-0.135-0.21-0.237c-0.050-0.103-0.075-0.222-0.076-0.356v-0.069c0-0.137 0.025-0.258 0.074-0.362s0.12-0.185 0.209-0.24c0.091-0.056 0.194-0.084 0.31-0.084s0.219 0.028 0.309 0.084c0.091 0.055 0.16 0.136 0.209 0.24s0.075 0.224 0.075 0.361v0.062zM25.281 19.035c0-0.146-0.026-0.257-0.078-0.333s-0.127-0.114-0.224-0.114c-0.096 0-0.171 0.038-0.223 0.113s-0.079 0.184-0.079 0.329v0.068c0 0.142 0.026 0.253 0.078 0.331s0.128 0.118 0.226 0.118c0.096 0 0.17-0.038 0.222-0.113s0.078-0.186 0.078-0.331v-0.068zM26.503 19.398c0-0.054-0.019-0.096-0.057-0.124s-0.107-0.060-0.207-0.092c-0.099-0.033-0.178-0.064-0.236-0.096-0.158-0.085-0.237-0.201-0.237-0.345 0-0.075 0.021-0.142 0.063-0.201s0.104-0.106 0.183-0.139c0.080-0.033 0.169-0.050 0.268-0.050s0.188 0.018 0.266 0.055c0.078 0.036 0.138 0.086 0.181 0.152s0.065 0.14 0.065 0.224h-0.287c0-0.064-0.020-0.113-0.060-0.148s-0.097-0.054-0.169-0.054c-0.070 0-0.125 0.015-0.164 0.045s-0.058 0.068-0.058 0.117c0 0.045 0.023 0.083 0.068 0.114s0.113 0.059 0.202 0.086c0.163 0.049 0.282 0.11 0.357 0.183s0.112 0.163 0.112 0.272c0 0.121-0.046 0.215-0.137 0.284s-0.214 0.102-0.368 0.102c-0.107 0-0.205-0.019-0.293-0.058s-0.155-0.093-0.202-0.162c-0.046-0.068-0.069-0.147-0.069-0.237h0.288c0 0.154 0.092 0.231 0.276 0.231 0.068 0 0.122-0.014 0.16-0.041s0.057-0.067 0.057-0.117zM28.034 18.603h-0.427v1.16h-0.287v-1.16h-0.421v-0.232h1.135v0.232zM29.037 19.159h-0.551v0.373h0.647v0.231h-0.934v-1.393h0.932v0.232h-0.645v0.332h0.551v0.225zM29.817 19.253h-0.229v0.51h-0.287v-1.393h0.518c0.165 0 0.291 0.037 0.381 0.11s0.134 0.177 0.134 0.311c0 0.095-0.021 0.174-0.062 0.238s-0.103 0.114-0.187 0.151l0.301 0.569v0.013h-0.308l-0.261-0.51zM29.588 19.021h0.232c0.072 0 0.128-0.018 0.167-0.055s0.059-0.088 0.059-0.152c0-0.066-0.019-0.117-0.056-0.155s-0.094-0.056-0.171-0.056h-0.231v0.418zM31.327 19.272v0.491h-0.287v-1.393h0.543c0.105 0 0.196 0.019 0.276 0.057s0.141 0.093 0.184 0.164c0.043 0.070 0.064 0.15 0.064 0.24 0 0.137-0.047 0.244-0.141 0.323s-0.222 0.118-0.387 0.118h-0.252zM31.327 19.040h0.256c0.076 0 0.134-0.018 0.173-0.054s0.060-0.087 0.060-0.153c0-0.068-0.020-0.123-0.060-0.166s-0.096-0.064-0.166-0.065h-0.263v0.437zM33.143 19.159h-0.551v0.373h0.647v0.231h-0.934v-1.393h0.932v0.232h-0.645v0.332h0.551v0.225zM34.474 18.603h-0.427v1.16h-0.287v-1.16h-0.421v-0.232h1.135v0.232zM35.477 19.159h-0.551v0.373h0.647v0.231h-0.934v-1.393h0.932v0.232h-0.645v0.332h0.551v0.225zM36.257 19.253h-0.229v0.51h-0.287v-1.393h0.518c0.164 0 0.291 0.037 0.381 0.11s0.134 0.177 0.134 0.311c0 0.095-0.021 0.174-0.062 0.238s-0.103 0.114-0.186 0.151l0.301 0.569v0.013h-0.308l-0.261-0.51zM36.028 19.021h0.231c0.072 0 0.128-0.018 0.167-0.055s0.059-0.088 0.059-0.152c0-0.066-0.019-0.117-0.056-0.155s-0.094-0.056-0.171-0.056h-0.231v0.418zM37.714 19.398c0-0.054-0.019-0.096-0.057-0.124s-0.107-0.060-0.207-0.092c-0.1-0.033-0.178-0.064-0.236-0.096-0.158-0.085-0.237-0.201-0.237-0.345 0-0.075 0.021-0.142 0.063-0.201s0.103-0.106 0.183-0.139c0.080-0.033 0.169-0.050 0.268-0.050s0.188 0.018 0.266 0.055c0.078 0.036 0.138 0.086 0.181 0.152s0.065 0.14 0.065 0.224h-0.287c0-0.064-0.020-0.113-0.060-0.148s-0.097-0.054-0.169-0.054c-0.070 0-0.125 0.015-0.164 0.045s-0.058 0.068-0.058 0.117c0 0.045 0.023 0.083 0.068 0.114s0.113 0.059 0.202 0.086c0.163 0.049 0.282 0.11 0.357 0.183s0.112 0.163 0.112 0.272c0 0.121-0.045 0.215-0.137 0.284s-0.214 0.102-0.368 0.102c-0.107 0-0.205-0.019-0.293-0.058s-0.155-0.093-0.202-0.162c-0.046-0.068-0.069-0.147-0.069-0.237h0.288c0 0.154 0.092 0.231 0.275 0.231 0.068 0 0.122-0.014 0.16-0.041s0.057-0.067 0.057-0.117z"></path>
</symbol>
<symbol id="icon-client-3" viewBox="0 0 58 32">
<path d="M24.603 21.484c0.005 0 0.010 0.001 0.014 0.003s0.009 0.005 0.012 0.008l0.067 0.070c-0.052 0.057-0.117 0.103-0.189 0.134-0.085 0.034-0.176 0.050-0.268 0.048-0.086 0.002-0.172-0.014-0.252-0.045-0.072-0.029-0.137-0.072-0.19-0.126-0.054-0.057-0.096-0.123-0.123-0.195-0.029-0.081-0.044-0.165-0.043-0.25-0.001-0.086 0.014-0.171 0.046-0.251 0.029-0.073 0.074-0.139 0.13-0.195 0.057-0.055 0.126-0.098 0.202-0.127 0.083-0.031 0.171-0.046 0.26-0.045 0.082-0.002 0.164 0.012 0.241 0.041 0.067 0.027 0.128 0.066 0.181 0.113l-0.056 0.075c-0.004 0.005-0.009 0.010-0.014 0.014-0.007 0.004-0.015 0.006-0.023 0.006s-0.017-0.003-0.024-0.008l-0.030-0.020-0.042-0.026c-0.018-0.009-0.037-0.018-0.056-0.025-0.025-0.009-0.050-0.015-0.076-0.020-0.033-0.006-0.066-0.008-0.1-0.008-0.064-0.001-0.127 0.011-0.186 0.034-0.055 0.021-0.105 0.053-0.146 0.094-0.042 0.044-0.074 0.095-0.095 0.15-0.024 0.064-0.035 0.131-0.034 0.198-0.001 0.069 0.011 0.137 0.034 0.202 0.020 0.055 0.052 0.106 0.093 0.15 0.038 0.041 0.086 0.072 0.139 0.093 0.055 0.022 0.114 0.033 0.173 0.032 0.034 0 0.069-0.002 0.102-0.006 0.055-0.006 0.108-0.025 0.155-0.054 0.023-0.015 0.046-0.031 0.066-0.050 0.009-0.008 0.020-0.012 0.032-0.013z"></path>
<path d="M26.543 21.13c0.001 0.085-0.014 0.169-0.045 0.249-0.027 0.072-0.070 0.138-0.127 0.193s-0.124 0.098-0.199 0.127c-0.164 0.060-0.346 0.060-0.511 0-0.074-0.029-0.142-0.072-0.197-0.127-0.056-0.056-0.099-0.123-0.128-0.195-0.061-0.161-0.061-0.337 0-0.499 0.029-0.073 0.072-0.139 0.128-0.196 0.056-0.053 0.123-0.095 0.197-0.122 0.164-0.061 0.346-0.061 0.511 0 0.075 0.029 0.142 0.072 0.198 0.127s0.098 0.121 0.127 0.193c0.031 0.080 0.047 0.165 0.045 0.25zM26.366 21.13c0.001-0.068-0.009-0.136-0.032-0.2-0.019-0.055-0.049-0.106-0.090-0.15-0.039-0.041-0.088-0.073-0.142-0.094-0.119-0.044-0.252-0.044-0.371 0-0.054 0.021-0.103 0.053-0.142 0.094-0.041 0.043-0.072 0.094-0.091 0.15-0.043 0.13-0.043 0.27 0 0.4 0.019 0.055 0.050 0.106 0.091 0.15 0.039 0.041 0.088 0.073 0.142 0.094 0.12 0.043 0.252 0.043 0.371 0 0.054-0.021 0.103-0.053 0.142-0.094 0.040-0.044 0.071-0.094 0.090-0.15 0.023-0.064 0.033-0.132 0.032-0.2z"></path>
<path d="M27.866 21.34l0.018 0.045c0.007-0.016 0.013-0.030 0.019-0.045s0.014-0.030 0.022-0.044l0.429-0.743c0.008-0.013 0.016-0.021 0.024-0.023 0.011-0.003 0.023-0.005 0.035-0.004h0.127v1.209h-0.15v-0.889c0-0.011 0-0.024 0-0.038s-0.001-0.028 0-0.042l-0.432 0.754c-0.006 0.011-0.014 0.021-0.025 0.027s-0.024 0.010-0.037 0.010h-0.024c-0.013 0-0.026-0.003-0.037-0.010s-0.020-0.016-0.025-0.028l-0.444-0.759c0 0.014 0 0.029 0 0.043s0 0.027 0 0.038v0.889h-0.145v-1.207h0.127c0.012-0.001 0.024 0.001 0.035 0.004 0.010 0.005 0.019 0.013 0.023 0.023l0.438 0.744c0.009 0.014 0.016 0.028 0.022 0.043z"></path>
<path d="M29.481 21.28v0.453h-0.168v-1.207h0.375c0.071-0.001 0.141 0.008 0.209 0.026 0.054 0.015 0.105 0.040 0.148 0.075 0.037 0.033 0.066 0.073 0.084 0.118 0.020 0.049 0.030 0.102 0.029 0.154 0.001 0.053-0.010 0.105-0.031 0.154-0.020 0.046-0.051 0.088-0.091 0.121-0.043 0.036-0.094 0.064-0.149 0.080-0.065 0.020-0.134 0.029-0.202 0.028l-0.203-0.003zM29.481 21.15h0.203c0.044 0.001 0.088-0.006 0.13-0.018 0.035-0.011 0.067-0.029 0.094-0.052 0.025-0.022 0.045-0.049 0.057-0.080 0.014-0.032 0.021-0.067 0.020-0.102 0.002-0.034-0.004-0.067-0.017-0.098s-0.033-0.059-0.059-0.082c-0.064-0.048-0.145-0.071-0.226-0.065h-0.203v0.498z"></path>
<path d="M31.739 21.734h-0.133c-0.013 0-0.026-0.003-0.037-0.011-0.010-0.008-0.017-0.017-0.022-0.028l-0.114-0.292h-0.574l-0.118 0.292c-0.004 0.011-0.012 0.020-0.021 0.027-0.011 0.008-0.024 0.012-0.038 0.012h-0.133l0.504-1.209h0.175l0.511 1.209zM30.908 21.285h0.474l-0.2-0.492c-0.015-0.037-0.028-0.075-0.038-0.114l-0.019 0.063c-0.006 0.019-0.013 0.037-0.018 0.051l-0.198 0.491z"></path>
<path d="M32.465 20.531c0.010 0.005 0.019 0.013 0.025 0.022l0.735 0.911c0-0.014 0-0.029 0-0.042s0-0.027 0-0.040v-0.856h0.151v1.209h-0.084c-0.012 0-0.023-0.002-0.034-0.007s-0.020-0.013-0.027-0.022l-0.734-0.911c0.001 0.014 0.001 0.028 0 0.042s0 0.026 0 0.037v0.862h-0.15v-1.209h0.089c0.010-0 0.021 0.002 0.030 0.006z"></path>
<path d="M34.613 21.253v0.48h-0.168v-0.48l-0.464-0.728h0.15c0.013-0.001 0.026 0.003 0.036 0.010 0.009 0.008 0.017 0.017 0.023 0.027l0.291 0.47c0.012 0.020 0.022 0.038 0.030 0.056s0.015 0.034 0.021 0.051l0.022-0.052c0.008-0.019 0.018-0.038 0.029-0.055l0.286-0.473c0.006-0.009 0.013-0.018 0.022-0.026 0.010-0.008 0.023-0.013 0.036-0.012h0.152l-0.465 0.731z"></path>
<path d="M27.783 18.496c0.073 0.009 0.147 0.016 0.222 0.022 1.133-0.483 2.092-1.274 2.756-2.273s1.005-2.163 0.979-3.345l-1.249-1.19c0.254 1.259 0.135 2.561-0.343 3.759s-1.297 2.246-2.365 3.027z"></path>
<path d="M27.337 18.441l0.034 0.006c1.141-0.778 2.011-1.863 2.497-3.117s0.567-2.617 0.231-3.915l-1.779-1.695c0.72 1.393 1.009 2.952 0.835 4.496s-0.804 3.009-1.818 4.224z"></path>
<path d="M33.37 14.297c-0.302 1.299-1.036 2.471-2.093 3.342-0.309 0.256-0.642 0.483-0.994 0.68 0.861-0.241 1.651-0.667 2.312-1.245s1.173-1.293 1.497-2.090l-0.721-0.687z"></path>
<path d="M33.087 14.106l-1.027-0.979c-0.020 1.116-0.353 2.206-0.964 3.158s-1.48 1.73-2.514 2.254h0.005c0.23-0 0.461-0.013 0.69-0.039 0.966-0.376 1.82-0.974 2.485-1.74s1.12-1.678 1.325-2.653z"></path>
<path d="M27.486 9.006l-1.225-1.169c-1.095 0.403-2.038 1.112-2.703 2.034s-1.023 2.014-1.027 3.133v0c0.004 1.236 0.441 2.436 1.241 3.409s1.918 1.664 3.177 1.964c1.124-1.305 1.782-2.917 1.878-4.602s-0.373-3.356-1.342-4.769z"></path>
<path d="M35.918 13.926c-0.004-1.467-0.618-2.872-1.707-3.91s-2.564-1.622-4.103-1.626c-0.711-0.001-1.417 0.124-2.080 0.369l7.503 7.148c0.257-0.632 0.389-1.304 0.388-1.981z"></path>
</symbol>
<symbol id="icon-client-2" viewBox="0 0 58 32">
<path d="M28.074 7.162h0.045c0.083 0 0.172 0.008 0.26 0.016 0.389 0.027 0.776 0.086 1.156 0.174v-0.935c-0.392-0.098-0.791-0.162-1.194-0.19-0.153-0.012-0.316-0.019-0.482-0.023h-0.14c-0.808 0.003-1.613 0.107-2.396 0.309-0.892 0.222-1.747 0.57-2.542 1.034v9.272c0.765-0.416 1.579-0.733 2.423-0.944 0.666-0.17 1.347-0.275 2.034-0.312h0.027c0.115-0.006 0.23-0.009 0.348-0.010v-0.95c-0.892 0.011-1.779 0.129-2.643 0.351-0.32 0.083-0.629 0.173-0.919 0.272l-0.33 0.112v-7.23l0.141-0.068c1.078-0.511 2.244-0.809 3.434-0.876 0.010-0.001 0.020-0.001 0.030 0 0.131-0.007 0.264-0.010 0.393-0.010h0.149c0.069 0.002 0.137 0.003 0.206 0.007z"></path>
<path d="M30.404 8.141c-0.217 0-0.432-0.007-0.639-0.023-0.248-0.018-0.502-0.048-0.743-0.089-0.147-0.025-0.292-0.055-0.432-0.087v9.166c0.595 0.147 1.205 0.219 1.817 0.214 0.808-0.003 1.613-0.107 2.396-0.308 0.892-0.223 1.748-0.571 2.542-1.034v-9.107c-0.765 0.415-1.578 0.733-2.422 0.945-0.823 0.211-1.669 0.32-2.519 0.323zM34.069 8.3l0.33-0.111v7.232l-0.141 0.068c-0.542 0.258-1.108 0.461-1.689 0.607-0.706 0.183-1.432 0.277-2.162 0.28-0.218 0-0.434-0.009-0.644-0.027l-0.226-0.020v-7.437l0.264 0.017c0.192 0.012 0.39 0.018 0.605 0.018 0.926-0.003 1.848-0.122 2.745-0.352 0.308-0.081 0.615-0.173 0.919-0.275z"></path>
<path d="M23.424 19.988c-0.047-0.049-0.105-0.088-0.168-0.114s-0.131-0.038-0.2-0.035c-0.073-0.001-0.145 0.013-0.212 0.040-0.062 0.025-0.118 0.062-0.165 0.109s-0.083 0.104-0.107 0.166c-0.026 0.065-0.039 0.135-0.038 0.205v1.239c-0.003 0.087 0.014 0.174 0.049 0.254 0.029 0.063 0.071 0.12 0.124 0.166 0.049 0.042 0.108 0.072 0.17 0.088 0.060 0.017 0.122 0.026 0.185 0.026 0.069 0.001 0.137-0.014 0.2-0.043 0.062-0.027 0.118-0.066 0.165-0.115 0.046-0.048 0.083-0.104 0.108-0.166s0.040-0.13 0.040-0.198v-0.139h-0.324v0.11c0.001 0.038-0.006 0.075-0.019 0.11-0.011 0.026-0.027 0.050-0.047 0.070-0.020 0.016-0.043 0.028-0.068 0.036-0.022 0.007-0.045 0.011-0.068 0.012-0.029 0.003-0.058-0.001-0.085-0.013s-0.050-0.030-0.067-0.054c-0.031-0.050-0.046-0.108-0.043-0.166v-1.155c-0.002-0.064 0.012-0.128 0.040-0.185 0.017-0.026 0.041-0.047 0.069-0.060s0.059-0.018 0.090-0.015c0.028-0.001 0.056 0.005 0.081 0.017s0.047 0.030 0.064 0.053c0.036 0.048 0.055 0.106 0.054 0.166v0.107h0.321v-0.126c0.001-0.074-0.013-0.148-0.040-0.217-0.024-0.065-0.061-0.124-0.108-0.174z"></path>
<path d="M25.348 19.974c-0.103-0.087-0.234-0.135-0.368-0.136-0.066 0-0.131 0.012-0.193 0.035s-0.121 0.057-0.171 0.101c-0.054 0.048-0.096 0.107-0.126 0.174-0.033 0.076-0.049 0.158-0.047 0.24v1.188c-0.002 0.084 0.014 0.167 0.047 0.243 0.029 0.064 0.072 0.121 0.126 0.166 0.049 0.046 0.108 0.082 0.171 0.105 0.062 0.023 0.127 0.035 0.193 0.035s0.131-0.012 0.193-0.035c0.064-0.023 0.124-0.059 0.175-0.105s0.093-0.103 0.122-0.166c0.033-0.077 0.049-0.16 0.047-0.243v-1.188c0.002-0.082-0.014-0.164-0.047-0.24-0.029-0.065-0.070-0.124-0.122-0.174zM25.197 21.575c0.003 0.032-0.002 0.064-0.013 0.093s-0.029 0.057-0.052 0.079c-0.043 0.036-0.097 0.055-0.152 0.055s-0.11-0.020-0.152-0.055c-0.023-0.022-0.040-0.049-0.052-0.079s-0.015-0.062-0.013-0.093v-1.188c-0.003-0.032 0.002-0.064 0.013-0.093s0.029-0.057 0.052-0.079c0.043-0.036 0.097-0.056 0.152-0.056s0.11 0.020 0.152 0.056c0.023 0.022 0.041 0.049 0.052 0.079s0.015 0.062 0.013 0.093v1.188z"></path>
<path d="M27.875 22.106v-2.249h-0.311l-0.409 1.191h-0.006l-0.412-1.191h-0.308v2.249h0.321v-1.368h0.006l0.315 0.967h0.16l0.317-0.967h0.006v1.368h0.321z"></path>
<path d="M29.701 20.014c-0.049-0.055-0.112-0.098-0.182-0.123-0.075-0.024-0.154-0.036-0.233-0.035h-0.477v2.249h0.32v-0.878h0.165c0.1 0.005 0.199-0.017 0.289-0.061 0.073-0.040 0.134-0.1 0.176-0.172 0.037-0.060 0.062-0.126 0.073-0.196 0.013-0.085 0.018-0.17 0.017-0.256 0.003-0.108-0.007-0.216-0.031-0.321-0.021-0.078-0.062-0.149-0.118-0.207zM29.535 20.7c-0.001 0.041-0.012 0.081-0.030 0.117-0.018 0.035-0.047 0.062-0.083 0.079-0.047 0.021-0.099 0.031-0.151 0.028h-0.146v-0.765h0.165c0.050-0.002 0.099 0.007 0.145 0.028 0.033 0.019 0.059 0.048 0.075 0.083 0.018 0.040 0.027 0.082 0.028 0.125 0 0.047 0 0.097 0 0.149s0.003 0.106 0 0.154h-0.003z"></path>
<path d="M31.219 19.857h-0.263l-0.496 2.249h0.32l0.094-0.483h0.437l0.094 0.483h0.32l-0.508-2.249zM30.923 21.316l0.158-0.815h0.006l0.157 0.815h-0.32z"></path>
<path d="M33.29 21.212h-0.006l-0.484-1.355h-0.308v2.249h0.32v-1.353h0.007l0.49 1.353h0.301v-2.249h-0.32v1.355z"></path>
<path d="M35.248 19.857l-0.258 0.894h-0.007l-0.258-0.894h-0.34l0.44 1.299v0.951h0.321v-0.951l0.44-1.299h-0.339z"></path>
<path d="M22.531 22.741h0.154v0.433h0.105v-0.433h0.154v-0.089h-0.413v0.089z"></path>
<path d="M23.829 22.652l-0.202 0.522h0.111l0.043-0.119h0.208l0.045 0.119h0.114l-0.207-0.522h-0.111zM23.813 22.968l0.071-0.193 0.071 0.193h-0.142z"></path>
<path d="M25.113 22.982h0.121v0.067c-0.035 0.028-0.079 0.044-0.124 0.044-0.021 0.001-0.042-0.003-0.061-0.011s-0.036-0.022-0.049-0.038c-0.028-0.040-0.041-0.088-0.039-0.136 0-0.116 0.050-0.174 0.15-0.174 0.026-0.003 0.053 0.004 0.074 0.020s0.037 0.038 0.044 0.063l0.103-0.020c-0.022-0.102-0.096-0.154-0.221-0.154-0.067-0.002-0.132 0.022-0.183 0.067-0.026 0.026-0.047 0.057-0.060 0.092s-0.018 0.072-0.015 0.109c-0.003 0.071 0.021 0.141 0.067 0.196 0.026 0.026 0.057 0.047 0.091 0.060s0.071 0.019 0.107 0.016c0.082 0.002 0.161-0.027 0.221-0.083v-0.206h-0.226v0.088z"></path>
<path d="M26.424 22.652h-0.106v0.522h0.366v-0.089h-0.26v-0.433z"></path>
<path d="M27.532 22.652h-0.106v0.522h0.106v-0.522z"></path>
<path d="M28.616 23.001l-0.214-0.349h-0.102v0.522h0.098v-0.341l0.21 0.341h0.105v-0.522h-0.097v0.349z"></path>
<path d="M29.596 22.945h0.26v-0.089h-0.26v-0.115h0.28v-0.089h-0.386v0.522h0.396v-0.089h-0.291v-0.141z"></path>
<path d="M31.971 22.858h-0.206v-0.206h-0.105v0.522h0.105v-0.228h0.206v0.228h0.105v-0.522h-0.105v0.206z"></path>
<path d="M32.957 22.945h0.261v-0.089h-0.261v-0.115h0.281v-0.089h-0.386v0.522h0.396v-0.089h-0.291v-0.141z"></path>
<path d="M34.293 22.945c0.091-0.014 0.137-0.062 0.137-0.145 0.003-0.022-0.001-0.045-0.009-0.065s-0.023-0.038-0.041-0.051c-0.047-0.024-0.1-0.034-0.153-0.031h-0.221v0.522h0.105v-0.218h0.021c0.023-0.001 0.045 0.003 0.065 0.012 0.015 0.009 0.028 0.023 0.037 0.038l0.114 0.166h0.125l-0.063-0.102c-0.028-0.050-0.068-0.093-0.116-0.125zM34.188 22.872h-0.078v-0.131h0.083c0.036-0.003 0.072 0.001 0.106 0.012 0.008 0.007 0.014 0.015 0.018 0.025s0.006 0.020 0.006 0.030c-0.001 0.010-0.003 0.020-0.008 0.029s-0.012 0.017-0.020 0.023c-0.035 0.011-0.071 0.015-0.106 0.012z"></path>
<path d="M35.301 22.945h0.26v-0.089h-0.26v-0.115h0.281v-0.089h-0.387v0.522h0.396v-0.089h-0.291v-0.141z"></path>
</symbol>
<symbol id="icon-client-1" viewBox="0 0 58 32">
<path d="M23.837 6.531l2.386 2.259h6.656v6.301l2.386 2.259v-10.819h-11.429z"></path>
<path d="M21.878 8.694v10.51h11.102v-4.178l-6.686-6.33-4.416-0.003zM30.865 17.667h-7.23v-7.069h0.511v6.59h6.719v0.479z"></path>
<path d="M25.075 21.154l0.267-0.55h0.223l-0.389 0.733v0.427h-0.202v-0.427l-0.39-0.733h0.224l0.267 0.55zM26.221 21.494h-0.45l-0.094 0.27h-0.21l0.438-1.161h0.181l0.439 1.161h-0.21l-0.095-0.27zM25.828 21.332h0.336l-0.168-0.482-0.168 0.482zM27.016 21.451c0-0.054 0.015-0.103 0.044-0.147s0.087-0.099 0.173-0.16c-0.045-0.057-0.077-0.105-0.095-0.145s-0.026-0.078-0.026-0.116c0-0.091 0.028-0.163 0.083-0.215s0.13-0.080 0.223-0.080c0.084 0 0.154 0.025 0.207 0.075s0.081 0.111 0.081 0.184c0 0.048-0.012 0.093-0.037 0.134s-0.065 0.081-0.12 0.121l-0.079 0.057 0.224 0.265c0.032-0.064 0.049-0.135 0.049-0.213h0.168c0 0.143-0.033 0.26-0.1 0.352l0.171 0.202h-0.225l-0.065-0.077c-0.083 0.062-0.182 0.093-0.297 0.093s-0.207-0.030-0.276-0.091c-0.069-0.061-0.103-0.141-0.103-0.238zM27.4 21.626c0.065 0 0.127-0.022 0.183-0.065l-0.253-0.299-0.025 0.018c-0.064 0.048-0.096 0.104-0.096 0.166 0 0.054 0.017 0.097 0.052 0.131s0.081 0.050 0.139 0.050zM27.293 20.878c0 0.045 0.027 0.101 0.082 0.168l0.088-0.061 0.025-0.020c0.033-0.029 0.049-0.067 0.049-0.112 0-0.030-0.011-0.056-0.034-0.077s-0.052-0.033-0.087-0.033c-0.038 0-0.068 0.013-0.090 0.038s-0.034 0.058-0.034 0.096zM29.402 21.387c-0.012 0.124-0.057 0.221-0.137 0.29s-0.186 0.104-0.318 0.104c-0.092 0-0.174-0.022-0.245-0.065s-0.124-0.107-0.163-0.187-0.058-0.175-0.060-0.281v-0.108c0-0.11 0.019-0.206 0.058-0.289s0.094-0.148 0.167-0.193c0.073-0.045 0.157-0.068 0.252-0.068 0.128 0 0.231 0.035 0.309 0.104s0.124 0.168 0.136 0.295h-0.201c-0.010-0.083-0.034-0.143-0.073-0.18s-0.096-0.056-0.171-0.056c-0.088 0-0.155 0.032-0.202 0.096s-0.071 0.158-0.072 0.281v0.103c0 0.125 0.022 0.221 0.067 0.287s0.111 0.099 0.198 0.099c0.079 0 0.139-0.018 0.179-0.053s0.065-0.095 0.076-0.178h0.201zM30.509 21.214c0 0.114-0.020 0.214-0.059 0.3s-0.096 0.151-0.169 0.198c-0.073 0.046-0.157 0.069-0.252 0.069-0.094 0-0.178-0.023-0.252-0.069s-0.13-0.112-0.171-0.197c-0.040-0.085-0.060-0.183-0.061-0.294v-0.065c0-0.113 0.020-0.213 0.060-0.3s0.097-0.153 0.17-0.198c0.073-0.046 0.157-0.069 0.252-0.069s0.178 0.023 0.251 0.069c0.073 0.045 0.13 0.111 0.17 0.196s0.060 0.184 0.061 0.297v0.065zM30.307 21.154c0-0.129-0.024-0.227-0.073-0.296s-0.117-0.103-0.206-0.103c-0.087 0-0.155 0.034-0.205 0.103s-0.074 0.165-0.075 0.289v0.067c0 0.128 0.025 0.226 0.074 0.296s0.119 0.104 0.207 0.104c0.089 0 0.158-0.034 0.206-0.102s0.073-0.167 0.073-0.298v-0.061z"></path>
</symbol>
</defs>


<symbol id="icon-person" viewBox="0 0 32 32">
<path d="M16 16c2.947 0 5.333-2.387 5.333-5.333s-2.387-5.333-5.333-5.333c-2.947 0-5.333 2.387-5.333 5.333s2.387 5.333 5.333 5.333zM16 18.667c-3.56 0-10.667 1.787-10.667 5.333v1.333c0 0.733 0.6 1.333 1.333 1.333h18.667c0.733 0 1.333-0.6 1.333-1.333v-1.333c0-3.547-7.107-5.333-10.667-5.333z"></path>
</symbol>

<symbol id="icon-phone" viewBox="0 0 32 32">
<path d="M24.881 19.773l-3.268-0.373c-0.785-0.090-1.557 0.18-2.11 0.733l-2.367 2.367c-3.641-1.853-6.626-4.825-8.478-8.478l2.38-2.38c0.553-0.553 0.823-1.325 0.733-2.11l-0.373-3.242c-0.154-1.299-1.248-2.277-2.56-2.277h-2.226c-1.454 0-2.663 1.209-2.573 2.663 0.682 10.987 9.469 19.761 20.443 20.443 1.454 0.090 2.663-1.119 2.663-2.573v-2.226c0.013-1.3-0.965-2.393-2.264-2.547z"></path>
</symbol>

<symbol id="icon-email" viewBox="0 0 32 32">
<path d="M26.667 5.333h-21.333c-1.467 0-2.653 1.2-2.653 2.667l-0.013 16c0 1.467 1.2 2.667 2.667 2.667h21.333c1.467 0 2.667-1.2 2.667-2.667v-16c0-1.467-1.2-2.667-2.667-2.667zM26.133 11l-9.427 5.893c-0.427 0.267-0.987 0.267-1.413 0l-9.427-5.893c-0.333-0.213-0.533-0.573-0.533-0.96 0-0.893 0.973-1.427 1.733-0.96l8.933 5.587 8.933-5.587c0.76-0.467 1.733 0.067 1.733 0.96 0 0.387-0.2 0.747-0.533 0.96z"></path>
</symbol>

<symbol id="icon-close" viewBox="0 0 33 32">
<path d="M31.25 4.022l-3.022-3.022-11.978 11.978-11.978-11.978-3.022 3.022 11.978 11.978-11.978 11.978 3.022 3.022 11.978-11.978 11.978 11.978 3.022-3.022-11.978-11.978 11.978-11.978z"></path>
</symbol>

<symbol id="icon-check" viewBox="0 0 42 32">
<path stroke="#fff" stroke-linejoin="miter" stroke-linecap="butt" stroke-miterlimit="4" stroke-width="0.64" d="M6.263 15.205l-0.22-0.21-3.307 3.132 11.651 11.114 24.477-23.351-3.285-3.134-21.192 20.197-8.124-7.75z"></path>
</symbol>

<symbol id="icon-send-footer" viewBox="0 0 32 32">
<path  d="M32 0l-32 18 10.227 3.788 15.773-14.788-11.998 16.186 0.010 0.004-0.012-0.004v8.814l5.735-6.691 7.265 2.691 5-28z"></path>
</symbol>

</svg>
